<svg xmlns="http://www.w3.org/2000/svg" width="22.001" height="22.001" viewBox="0 0 22.001 22.001">
  <path id="Subtraction_1" data-name="Subtraction 1" d="M4306.5-5625a10.513,10.513,0,0,1-10.5-10.5,10.513,10.513,0,0,1,10.5-10.5,10.513,10.513,0,0,1,10.5,10.5A10.512,10.512,0,0,1,4306.5-5625Zm-5.5-5.923h0a7.153,7.153,0,0,0,3.916,1.158,7.221,7.221,0,0,0,7.292-7.292c0-.11,0-.224,0-.33a5.2,5.2,0,0,0,1.28-1.329,5.2,5.2,0,0,1-1.472.4,2.56,2.56,0,0,0,1.128-1.418,5.22,5.22,0,0,1-1.627.622,2.532,2.532,0,0,0-1.87-.808,2.564,2.564,0,0,0-2.562,2.561,2.335,2.335,0,0,0,.069.585,7.3,7.3,0,0,1-5.284-2.678,2.58,2.58,0,0,0-.344,1.285,2.545,2.545,0,0,0,1.142,2.131,2.527,2.527,0,0,1-1.159-.319v.033a2.576,2.576,0,0,0,2.057,2.514,2.562,2.562,0,0,1-.674.091,2.476,2.476,0,0,1-.484-.048,2.555,2.555,0,0,0,2.392,1.78,5.121,5.121,0,0,1-3.183,1.1A4.58,4.58,0,0,1,4301.005-5630.922Z" transform="translate(-4295.5 5646.5)" fill="#20409a" stroke="rgba(0,0,0,0)" stroke-miterlimit="10" stroke-width="1"/>
</svg>
