<svg xmlns="http://www.w3.org/2000/svg" xmlns:xlink="http://www.w3.org/1999/xlink" width="411" height="731" viewBox="0 0 411 731">
  <defs>
    <linearGradient id="linear-gradient" x1="0.5" y1="1" x2="0.5" gradientUnits="objectBoundingBox">
      <stop offset="0" stop-color="#d18707"/>
      <stop offset="1" stop-color="#d18707" stop-opacity="0.388"/>
    </linearGradient>
    <clipPath id="clip-k9_karaoke_creation_start_1">
      <rect width="411" height="731"/>
    </clipPath>
  </defs>
  <g id="k9_karaoke_creation_start_1" data-name="k9_karaoke_creation_start – 1" clip-path="url(#clip-k9_karaoke_creation_start_1)">
    <rect width="411" height="731" fill="#fffdfb"/>
    <g id="bckgrd">
      <g id="Group_80" data-name="Group 80" opacity="0.07">
        <g id="Group_11" data-name="Group 11" transform="translate(23.553 66.757) rotate(-16)">
          <path id="Path_4" data-name="Path 4" d="M73.66,69.4l-.84-.32c-3.77-1.45-8-3.09-9.27-9.62C62.2,52.23,55.77,49,50,49S37.8,52.23,36.45,59.46C35.22,66,31,67.63,27.18,69.08l-.84.32c-3.78,1.49-6.07,6.89-5.09,12,1.14,6,6.15,9.58,13.39,9.58A18.175,18.175,0,0,0,45,87.87c1.76-1,3.14-1.87,5-1.87s3.28.83,5,1.87A18.175,18.175,0,0,0,65.36,91c7.24,0,12.25-3.58,13.39-9.58C79.73,76.29,77.44,70.89,73.66,69.4Z"/>
          <path id="Path_5" data-name="Path 5" d="M37.319,44.071l.673-.1c6.6-.967,11.343-9.01,10.669-18.362C47.977,15.978,41.76,8.521,34.795,9c-3.441.242-6.51,2.339-8.645,5.906a21.474,21.474,0,0,0-2.7,12.524,21.568,21.568,0,0,0,4.458,12C30.545,42.678,33.879,44.322,37.319,44.071Z"/>
          <path id="Path_6" data-name="Path 6" d="M61.692,43.963l.67.111c3.435.315,6.8-1.268,9.492-4.441a21.568,21.568,0,0,0,4.677-11.917,21.469,21.469,0,0,0-2.473-12.571c-2.069-3.606-5.126-5.774-8.535-6.064C58.534,8.442,52.25,15.8,51.355,25.439,50.486,34.742,55.111,42.875,61.692,43.963Z"/>
          <path id="Path_7" data-name="Path 7" d="M28.87,61.984c2.652-3.548,2.6-9.578-.479-14.941-3.8-6.6-10.813-9.77-15.6-7.015S7.2,50.4,11.01,57a16.846,16.846,0,0,0,7.279,6.965c2.988,1.4,5.934,1.415,8.308.043A7.506,7.506,0,0,0,28.87,61.984Z"/>
          <path id="Path_8" data-name="Path 8" d="M71.736,46.839c-3.224,5.279-3.433,11.306-.876,14.923a7.511,7.511,0,0,0,2.23,2.1c2.337,1.435,5.283,1.495,8.307.178a16.853,16.853,0,0,0,7.461-6.77c3.972-6.507,3.372-14.129-1.335-17.01S75.758,40.333,71.736,46.839Z"/>
        </g>
        <g id="Group_15" data-name="Group 15" transform="translate(257.201 4.042) rotate(25)">
          <path id="Path_4-2" data-name="Path 4" d="M60.949,64.474l-.637-.243c-2.86-1.1-6.068-2.344-7.031-7.3C52.257,51.45,47.379,49,43,49s-9.254,2.45-10.278,7.934c-.933,4.961-4.134,6.2-7.031,7.3l-.637.243c-2.867,1.13-4.6,5.226-3.861,9.1.865,4.551,4.665,7.267,10.157,7.267a13.786,13.786,0,0,0,7.858-2.359A7.544,7.544,0,0,1,43,77.065,7.18,7.18,0,0,1,46.8,78.484a13.786,13.786,0,0,0,7.858,2.374c5.492,0,9.292-2.715,10.157-7.267C65.553,69.7,63.816,65.6,60.949,64.474Z" transform="translate(-2.998 -9.665)"/>
          <path id="Path_5-2" data-name="Path 5" d="M33.948,35.6l.51-.075c5.005-.733,8.6-6.834,8.093-13.928-.519-7.306-5.235-12.962-10.518-12.6a8.432,8.432,0,0,0-6.557,4.48,16.288,16.288,0,0,0-2.05,9.5,16.36,16.36,0,0,0,3.381,9.1C28.81,34.539,31.339,35.786,33.948,35.6Z" transform="translate(-3.562)"/>
          <path id="Path_6-2" data-name="Path 6" d="M59.17,35.53l.508.084a8.465,8.465,0,0,0,7.2-3.369,16.36,16.36,0,0,0,3.548-9.039,16.285,16.285,0,0,0-1.876-9.535,8.436,8.436,0,0,0-6.474-4.6c-5.3-.485-10.068,5.093-10.747,12.408C50.671,28.536,54.179,34.705,59.17,35.53Z" transform="translate(-10.297 -0.016)"/>
          <path id="Path_7-2" data-name="Path 7" d="M23.977,56.442c2.012-2.691,1.974-7.265-.363-11.333-2.885-5.009-8.2-7.411-11.829-5.321S7.54,47.657,10.43,52.659a12.778,12.778,0,0,0,5.521,5.283,6.685,6.685,0,0,0,6.3.033A5.693,5.693,0,0,0,23.977,56.442Z" transform="translate(0 -7.259)"/>
          <path id="Path_8-2" data-name="Path 8" d="M71.1,44.984c-2.445,4-2.6,8.576-.664,11.319a5.7,5.7,0,0,0,1.691,1.591,6.686,6.686,0,0,0,6.3.135,12.784,12.784,0,0,0,5.659-5.135c3.013-4.936,2.558-10.717-1.013-12.9S74.153,40.049,71.1,44.984Z" transform="translate(-14.61 -7.288)"/>
        </g>
        <g id="Group_16" data-name="Group 16" transform="translate(45.201 233.042) rotate(25)">
          <path id="Path_4-3" data-name="Path 4" d="M60.949,64.474l-.637-.243c-2.86-1.1-6.068-2.344-7.031-7.3C52.257,51.45,47.379,49,43,49s-9.254,2.45-10.278,7.934c-.933,4.961-4.134,6.2-7.031,7.3l-.637.243c-2.867,1.13-4.6,5.226-3.861,9.1.865,4.551,4.665,7.267,10.157,7.267a13.786,13.786,0,0,0,7.858-2.359A7.544,7.544,0,0,1,43,77.065,7.18,7.18,0,0,1,46.8,78.484a13.786,13.786,0,0,0,7.858,2.374c5.492,0,9.292-2.715,10.157-7.267C65.553,69.7,63.816,65.6,60.949,64.474Z" transform="translate(-2.998 -9.665)"/>
          <path id="Path_5-3" data-name="Path 5" d="M33.948,35.6l.51-.075c5.005-.733,8.6-6.834,8.093-13.928-.519-7.306-5.235-12.962-10.518-12.6a8.432,8.432,0,0,0-6.557,4.48,16.288,16.288,0,0,0-2.05,9.5,16.36,16.36,0,0,0,3.381,9.1C28.81,34.539,31.339,35.786,33.948,35.6Z" transform="translate(-3.562)"/>
          <path id="Path_6-3" data-name="Path 6" d="M59.17,35.53l.508.084a8.465,8.465,0,0,0,7.2-3.369,16.36,16.36,0,0,0,3.548-9.039,16.285,16.285,0,0,0-1.876-9.535,8.436,8.436,0,0,0-6.474-4.6c-5.3-.485-10.068,5.093-10.747,12.408C50.671,28.536,54.179,34.705,59.17,35.53Z" transform="translate(-10.297 -0.016)"/>
          <path id="Path_7-3" data-name="Path 7" d="M23.977,56.442c2.012-2.691,1.974-7.265-.363-11.333-2.885-5.009-8.2-7.411-11.829-5.321S7.54,47.657,10.43,52.659a12.778,12.778,0,0,0,5.521,5.283,6.685,6.685,0,0,0,6.3.033A5.693,5.693,0,0,0,23.977,56.442Z" transform="translate(0 -7.259)"/>
          <path id="Path_8-3" data-name="Path 8" d="M71.1,44.984c-2.445,4-2.6,8.576-.664,11.319a5.7,5.7,0,0,0,1.691,1.591,6.686,6.686,0,0,0,6.3.135,12.784,12.784,0,0,0,5.659-5.135c3.013-4.936,2.558-10.717-1.013-12.9S74.153,40.049,71.1,44.984Z" transform="translate(-14.61 -7.288)"/>
        </g>
        <g id="Group_17" data-name="Group 17" transform="translate(324.201 384.042) rotate(25)">
          <path id="Path_4-4" data-name="Path 4" d="M60.949,64.474l-.637-.243c-2.86-1.1-6.068-2.344-7.031-7.3C52.257,51.45,47.379,49,43,49s-9.254,2.45-10.278,7.934c-.933,4.961-4.134,6.2-7.031,7.3l-.637.243c-2.867,1.13-4.6,5.226-3.861,9.1.865,4.551,4.665,7.267,10.157,7.267a13.786,13.786,0,0,0,7.858-2.359A7.544,7.544,0,0,1,43,77.065,7.18,7.18,0,0,1,46.8,78.484a13.786,13.786,0,0,0,7.858,2.374c5.492,0,9.292-2.715,10.157-7.267C65.553,69.7,63.816,65.6,60.949,64.474Z" transform="translate(-2.998 -9.665)"/>
          <path id="Path_5-4" data-name="Path 5" d="M33.948,35.6l.51-.075c5.005-.733,8.6-6.834,8.093-13.928-.519-7.306-5.235-12.962-10.518-12.6a8.432,8.432,0,0,0-6.557,4.48,16.288,16.288,0,0,0-2.05,9.5,16.36,16.36,0,0,0,3.381,9.1C28.81,34.539,31.339,35.786,33.948,35.6Z" transform="translate(-3.562)"/>
          <path id="Path_6-4" data-name="Path 6" d="M59.17,35.53l.508.084a8.465,8.465,0,0,0,7.2-3.369,16.36,16.36,0,0,0,3.548-9.039,16.285,16.285,0,0,0-1.876-9.535,8.436,8.436,0,0,0-6.474-4.6c-5.3-.485-10.068,5.093-10.747,12.408C50.671,28.536,54.179,34.705,59.17,35.53Z" transform="translate(-10.297 -0.016)"/>
          <path id="Path_7-4" data-name="Path 7" d="M23.977,56.442c2.012-2.691,1.974-7.265-.363-11.333-2.885-5.009-8.2-7.411-11.829-5.321S7.54,47.657,10.43,52.659a12.778,12.778,0,0,0,5.521,5.283,6.685,6.685,0,0,0,6.3.033A5.693,5.693,0,0,0,23.977,56.442Z" transform="translate(0 -7.259)"/>
          <path id="Path_8-4" data-name="Path 8" d="M71.1,44.984c-2.445,4-2.6,8.576-.664,11.319a5.7,5.7,0,0,0,1.691,1.591,6.686,6.686,0,0,0,6.3.135,12.784,12.784,0,0,0,5.659-5.135c3.013-4.936,2.558-10.717-1.013-12.9S74.153,40.049,71.1,44.984Z" transform="translate(-14.61 -7.288)"/>
        </g>
        <g id="Group_12" data-name="Group 12" transform="translate(275.553 599.757) rotate(-16)">
          <path id="Path_4-5" data-name="Path 4" d="M73.66,69.4l-.84-.32c-3.77-1.45-8-3.09-9.27-9.62C62.2,52.23,55.77,49,50,49S37.8,52.23,36.45,59.46C35.22,66,31,67.63,27.18,69.08l-.84.32c-3.78,1.49-6.07,6.89-5.09,12,1.14,6,6.15,9.58,13.39,9.58A18.175,18.175,0,0,0,45,87.87c1.76-1,3.14-1.87,5-1.87s3.28.83,5,1.87A18.175,18.175,0,0,0,65.36,91c7.24,0,12.25-3.58,13.39-9.58C79.73,76.29,77.44,70.89,73.66,69.4Z"/>
          <path id="Path_5-5" data-name="Path 5" d="M37.319,44.071l.673-.1c6.6-.967,11.343-9.01,10.669-18.362C47.977,15.978,41.76,8.521,34.795,9c-3.441.242-6.51,2.339-8.645,5.906a21.474,21.474,0,0,0-2.7,12.524,21.568,21.568,0,0,0,4.458,12C30.545,42.678,33.879,44.322,37.319,44.071Z"/>
          <path id="Path_6-5" data-name="Path 6" d="M61.692,43.963l.67.111c3.435.315,6.8-1.268,9.492-4.441a21.568,21.568,0,0,0,4.677-11.917,21.469,21.469,0,0,0-2.473-12.571c-2.069-3.606-5.126-5.774-8.535-6.064C58.534,8.442,52.25,15.8,51.355,25.439,50.486,34.742,55.111,42.875,61.692,43.963Z"/>
          <path id="Path_7-5" data-name="Path 7" d="M28.87,61.984c2.652-3.548,2.6-9.578-.479-14.941-3.8-6.6-10.813-9.77-15.6-7.015S7.2,50.4,11.01,57a16.846,16.846,0,0,0,7.279,6.965c2.988,1.4,5.934,1.415,8.308.043A7.506,7.506,0,0,0,28.87,61.984Z"/>
          <path id="Path_8-5" data-name="Path 8" d="M71.736,46.839c-3.224,5.279-3.433,11.306-.876,14.923a7.511,7.511,0,0,0,2.23,2.1c2.337,1.435,5.283,1.495,8.307.178a16.853,16.853,0,0,0,7.461-6.77c3.972-6.507,3.372-14.129-1.335-17.01S75.758,40.333,71.736,46.839Z"/>
        </g>
        <g id="Group_13" data-name="Group 13" transform="matrix(0.883, 0.469, -0.469, 0.883, 56.528, 493.08)">
          <path id="Path_4-6" data-name="Path 4" d="M86.095,74.219l-1.038-.4C80.4,72.031,75.167,70,73.6,61.931,71.928,52.993,63.979,49,56.845,49S41.763,52.993,40.094,61.931c-1.521,8.085-6.738,10.1-11.46,11.893l-1.038.4c-4.673,1.842-7.5,8.518-6.292,14.835,1.409,7.417,7.6,11.843,16.553,11.843a22.468,22.468,0,0,0,12.807-3.845c2.176-1.236,3.882-2.312,6.181-2.312s4.055,1.026,6.181,2.312a22.468,22.468,0,0,0,12.807,3.869c8.95,0,15.144-4.426,16.553-11.843C93.6,82.737,90.768,76.061,86.095,74.219Z" transform="translate(2.933 9.456)"/>
          <path id="Path_5-6" data-name="Path 5" d="M40.617,52.362l.832-.122c8.158-1.2,14.023-11.139,13.189-22.7C53.792,17.633,46.107,8.414,37.5,9c-4.254.3-8.048,2.892-10.687,7.3a26.547,26.547,0,0,0-3.34,15.483A26.663,26.663,0,0,0,28.98,46.621C32.242,50.64,36.364,52.672,40.617,52.362Z" transform="translate(3.485 0)"/>
          <path id="Path_6-6" data-name="Path 6" d="M64.159,52.213l.828.137c4.246.389,8.4-1.568,11.734-5.49A26.664,26.664,0,0,0,82.5,32.127a26.541,26.541,0,0,0-3.057-15.541c-2.558-4.458-6.337-7.138-10.551-7.5-8.64-.79-16.409,8.3-17.515,20.222C50.305,40.813,56.023,50.868,64.159,52.213Z" transform="translate(10.074 0.016)"/>
          <path id="Path_7-6" data-name="Path 7" d="M33.657,67.406c3.279-4.386,3.218-11.841-.592-18.471-4.7-8.163-13.367-12.078-19.279-8.672S6.867,53.089,11.578,61.241a20.825,20.825,0,0,0,9,8.61c3.694,1.727,7.336,1.749,10.271.053A9.279,9.279,0,0,0,33.657,67.406Z" transform="translate(0 7.101)"/>
          <path id="Path_8-6" data-name="Path 8" d="M72.356,48.654C68.37,55.18,68.112,62.631,71.273,67.1a9.286,9.286,0,0,0,2.757,2.592c2.889,1.774,6.531,1.848,10.269.22a20.835,20.835,0,0,0,9.224-8.369c4.91-8.044,4.169-17.467-1.65-21.028S77.328,40.611,72.356,48.654Z" transform="translate(14.293 7.13)"/>
        </g>
        <g id="Group_14" data-name="Group 14" transform="matrix(0.883, 0.469, -0.469, 0.883, 220.528, 220.08)">
          <path id="Path_4-7" data-name="Path 4" d="M86.095,74.219l-1.038-.4C80.4,72.031,75.167,70,73.6,61.931,71.928,52.993,63.979,49,56.845,49S41.763,52.993,40.094,61.931c-1.521,8.085-6.738,10.1-11.46,11.893l-1.038.4c-4.673,1.842-7.5,8.518-6.292,14.835,1.409,7.417,7.6,11.843,16.553,11.843a22.468,22.468,0,0,0,12.807-3.845c2.176-1.236,3.882-2.312,6.181-2.312s4.055,1.026,6.181,2.312a22.468,22.468,0,0,0,12.807,3.869c8.95,0,15.144-4.426,16.553-11.843C93.6,82.737,90.768,76.061,86.095,74.219Z" transform="translate(2.933 9.456)"/>
          <path id="Path_5-7" data-name="Path 5" d="M40.617,52.362l.832-.122c8.158-1.2,14.023-11.139,13.189-22.7C53.792,17.633,46.107,8.414,37.5,9c-4.254.3-8.048,2.892-10.687,7.3a26.547,26.547,0,0,0-3.34,15.483A26.663,26.663,0,0,0,28.98,46.621C32.242,50.64,36.364,52.672,40.617,52.362Z" transform="translate(3.485 0)"/>
          <path id="Path_6-7" data-name="Path 6" d="M64.159,52.213l.828.137c4.246.389,8.4-1.568,11.734-5.49A26.664,26.664,0,0,0,82.5,32.127a26.541,26.541,0,0,0-3.057-15.541c-2.558-4.458-6.337-7.138-10.551-7.5-8.64-.79-16.409,8.3-17.515,20.222C50.305,40.813,56.023,50.868,64.159,52.213Z" transform="translate(10.074 0.016)"/>
          <path id="Path_7-7" data-name="Path 7" d="M33.657,67.406c3.279-4.386,3.218-11.841-.592-18.471-4.7-8.163-13.367-12.078-19.279-8.672S6.867,53.089,11.578,61.241a20.825,20.825,0,0,0,9,8.61c3.694,1.727,7.336,1.749,10.271.053A9.279,9.279,0,0,0,33.657,67.406Z" transform="translate(0 7.101)"/>
          <path id="Path_8-7" data-name="Path 8" d="M72.356,48.654C68.37,55.18,68.112,62.631,71.273,67.1a9.286,9.286,0,0,0,2.757,2.592c2.889,1.774,6.531,1.848,10.269.22a20.835,20.835,0,0,0,9.224-8.369c4.91-8.044,4.169-17.467-1.65-21.028S77.328,40.611,72.356,48.654Z" transform="translate(14.293 7.13)"/>
        </g>
      </g>
      <path id="Path_23" data-name="Path 23" d="M0,0H411V731H0Z" opacity="0.12" fill="url(#linear-gradient)"/>
    </g>
  </g>
</svg>
