<?xml version="1.0" encoding="UTF-8" standalone="no"?>
<!-- Generator: Adobe Illustrator 24.1.1, SVG Export Plug-In . SVG Version: 6.00 Build 0)  -->

<svg
   xmlns:dc="http://purl.org/dc/elements/1.1/"
   xmlns:cc="http://creativecommons.org/ns#"
   xmlns:rdf="http://www.w3.org/1999/02/22-rdf-syntax-ns#"
   xmlns:svg="http://www.w3.org/2000/svg"
   xmlns="http://www.w3.org/2000/svg"
   xmlns:sodipodi="http://sodipodi.sourceforge.net/DTD/sodipodi-0.dtd"
   xmlns:inkscape="http://www.inkscape.org/namespaces/inkscape"
   version="1.1"
   id="Layer_1"
   x="0px"
   y="0px"
   viewBox="0 0 39 33.3"
   style="enable-background:new 0 0 39 33.3;"
   xml:space="preserve"
   sodipodi:docname="volume.svg"
   inkscape:version="0.92.4 (5da689c313, 2019-01-14)"><metadata
   id="metadata12"><rdf:RDF><cc:Work
       rdf:about=""><dc:format>image/svg+xml</dc:format><dc:type
         rdf:resource="http://purl.org/dc/dcmitype/StillImage" /></cc:Work></rdf:RDF></metadata><defs
   id="defs10" /><sodipodi:namedview
   pagecolor="#ffffff"
   bordercolor="#666666"
   borderopacity="1"
   objecttolerance="10"
   gridtolerance="10"
   guidetolerance="10"
   inkscape:pageopacity="0"
   inkscape:pageshadow="2"
   inkscape:window-width="894"
   inkscape:window-height="486"
   id="namedview8"
   showgrid="false"
   inkscape:zoom="7.0870872"
   inkscape:cx="19.5"
   inkscape:cy="16.65"
   inkscape:window-x="0"
   inkscape:window-y="54"
   inkscape:window-maximized="0"
   inkscape:current-layer="Layer_1" />
<path
   id="Union_2"
   d="M11,22.5L11,22.5l-11,0v-12h11.7L20.3,0v33.3L11,22.5z"
   style="fill:#ffffff" />
<path
   d="M22.6,33.1C22.6,33.1,22.6,33.1,22.6,33.1l0-4.6c0,0,0,0,0,0c3.2,0,6.2-1.2,8.4-3.5s3.5-5.3,3.5-8.4  c0-6.6-5.4-11.9-11.9-11.9l0-4.6c4.4,0,8.6,1.7,11.7,4.8c3.1,3.1,4.8,7.3,4.8,11.7c0,4.4-1.7,8.5-4.8,11.7  C31.1,31.4,27,33.1,22.6,33.1z"
   id="path3"
   style="fill:#ffffff" />
<path
   d="M22.5,10.2v12.9c3.6-0.1,6.4-3,6.3-6.6C28.8,13,26,10.3,22.5,10.2z"
   id="path5"
   style="fill:#ffffff" />
</svg>