<?xml version="1.0" encoding="utf-8"?>
<!-- Generator: Adobe Illustrator 24.1.1, SVG Export Plug-In . SVG Version: 6.00 Build 0)  -->
<svg version="1.1" id="Layer_1" xmlns="http://www.w3.org/2000/svg" xmlns:xlink="http://www.w3.org/1999/xlink" x="0px" y="0px"
	 viewBox="0 0 28.5 44" style="enable-background:new 0 0 28.5 44;" xml:space="preserve">
<path d="M24.9,33.8L19.1,28c-0.8-0.8-2-0.8-2.8,0c-0.8,0.8-0.8,2,0,2.8l4.5,4.5l-4.5,4.5c-0.8,0.8-0.8,2,0,2.8
	c0.4,0.4,0.9,0.6,1.4,0.6s1-0.2,1.4-0.6l5.8-5.8c0.4-0.4,0.6-1,0.6-1.5C25.5,34.8,25.3,34.2,24.9,33.8z"/>
<path d="M14.4,37.3c-4.6,0-8.6-1.5-11.2-4.3C1,30.8-0.1,27.8,0,24.8c0-1.1,1-2,2.1-1.9c1.1,0,2,1,1.9,2.1c-0.1,2,0.7,3.9,2.1,5.4
	c1.9,2,4.9,3,8.4,3c1.1,0,2,0.9,2,2S15.5,37.3,14.4,37.3z"/>
<path d="M12.2,13.2L7.7,8.7l4.5-4.5c0.8-0.8,0.8-2,0-2.8c-0.8-0.8-2-0.8-2.8,0L3.6,7.2C3.2,7.6,3,8.2,3,8.7c0,0.5,0.2,1.1,0.6,1.5
	l5.8,5.8c0.4,0.4,0.9,0.6,1.4,0.6s1-0.2,1.4-0.6C13,15.3,13,14,12.2,13.2z"/>
<path d="M26.5,21.2C26.5,21.2,26.4,21.2,26.5,21.2c-1.2,0-2-1-2-2.1c0.1-2-0.7-3.9-2.1-5.4c-1.9-2-4.9-3-8.4-3c-1.1,0-2-0.9-2-2
	s0.9-2,2-2c4.6,0,8.6,1.5,11.2,4.3c2.2,2.3,3.3,5.2,3.2,8.3C28.4,20.4,27.6,21.2,26.5,21.2z"/>
</svg>
