<svg id="Group_73" data-name="Group 73" xmlns="http://www.w3.org/2000/svg" width="21.225" height="21.225" viewBox="0 0 21.225 21.225">
  <path id="Path_17" data-name="Path 17" d="M14.691,5.991c2.834,0,3.169.011,4.288.062a5.874,5.874,0,0,1,1.971.365,3.515,3.515,0,0,1,2.014,2.014A5.874,5.874,0,0,1,23.33,10.4c.051,1.119.062,1.455.062,4.288s-.011,3.169-.062,4.288a5.874,5.874,0,0,1-.365,1.971,3.515,3.515,0,0,1-2.014,2.014,5.874,5.874,0,0,1-1.971.365c-1.119.051-1.454.062-4.288.062s-3.169-.011-4.288-.062a5.874,5.874,0,0,1-1.971-.365A3.515,3.515,0,0,1,6.418,20.95a5.874,5.874,0,0,1-.365-1.971c-.051-1.119-.062-1.455-.062-4.288S6,11.522,6.053,10.4a5.874,5.874,0,0,1,.365-1.971A3.515,3.515,0,0,1,8.432,6.418,5.874,5.874,0,0,1,10.4,6.053c1.119-.051,1.455-.062,4.288-.062m0-1.912c-2.882,0-3.244.012-4.375.064a7.79,7.79,0,0,0-2.576.493,5.427,5.427,0,0,0-3.1,3.1,7.79,7.79,0,0,0-.493,2.576c-.052,1.132-.064,1.493-.064,4.375s.012,3.244.064,4.375a7.79,7.79,0,0,0,.493,2.576,5.427,5.427,0,0,0,3.1,3.1,7.79,7.79,0,0,0,2.576.493c1.132.052,1.493.064,4.375.064s3.244-.012,4.375-.064a7.79,7.79,0,0,0,2.576-.493,5.427,5.427,0,0,0,3.1-3.1,7.789,7.789,0,0,0,.493-2.576c.052-1.132.064-1.493.064-4.375s-.012-3.244-.064-4.375a7.789,7.789,0,0,0-.493-2.576,5.427,5.427,0,0,0-3.1-3.1,7.79,7.79,0,0,0-2.576-.493c-1.132-.052-1.493-.064-4.375-.064Z" transform="translate(-4.079 -4.079)" fill="#20409a"/>
  <path id="Path_18" data-name="Path 18" d="M132.085,126.635a5.45,5.45,0,1,0,5.45,5.45A5.45,5.45,0,0,0,132.085,126.635Zm0,8.987a3.537,3.537,0,1,1,3.537-3.537A3.537,3.537,0,0,1,132.085,135.622Z" transform="translate(-121.472 -121.472)" fill="#20409a"/>
  <ellipse id="Ellipse_4" data-name="Ellipse 4" cx="1.273" cy="1.273" rx="1.273" ry="1.273" transform="translate(15.004 3.674)" fill="#20409a"/>
</svg>
