{
    "asset": {
        "generator": "FBX2glTF v0.9.7",
        "version": "2.0"
    },
    "scene": 0,
    "buffers": [
        {
            "byteLength": 8396,
            "uri": "buffer.bin"
        }
    ],
    "bufferViews": [
        {
            "buffer": 0,
            "byteLength": 444,
            "byteOffset": 0,
            "target": 34963
        },
        {
            "buffer": 0,
            "byteLength": 1704,
            "byteOffset": 444,
            "target": 34962
        },
        {
            "buffer": 0,
            "byteLength": 1704,
            "byteOffset": 2148,
            "target": 34962
        },
        {
            "buffer": 0,
            "byteLength": 2272,
            "byteOffset": 3852,
            "target": 34962
        },
        {
            "buffer": 0,
            "byteLength": 1136,
            "byteOffset": 6124,
            "target": 34962
        },
        {
            "buffer": 0,
            "byteLength": 1136,
            "byteOffset": 7260,
            "target": 34962
        }
    ],
    "scenes": [
        {
            "name": "Root Scene",
            "nodes": [
                0
            ]
        }
    ],
    "accessors": [
        {
            "componentType": 5123,
            "type": "SCALAR",
            "count": 222,
            "bufferView": 0,
            "byteOffset": 0
        },
        {
            "componentType": 5126,
            "type": "VEC3",
            "count": 142,
            "bufferView": 1,
            "byteOffset": 0,
            "min": [
                -0.496544152498245,
                -7.37225818170373e-08,
                -0.382962256669998
            ],
            "max": [
                0.496544152498245,
                7.62296323841838e-08,
                0.0811650156974792
            ]
        },
        {
            "componentType": 5126,
            "type": "VEC3",
            "count": 142,
            "bufferView": 2,
            "byteOffset": 0
        },
        {
            "componentType": 5126,
            "type": "VEC4",
            "count": 142,
            "bufferView": 3,
            "byteOffset": 0
        },
        {
            "componentType": 5126,
            "type": "VEC2",
            "count": 142,
            "bufferView": 4,
            "byteOffset": 0
        },
        {
            "componentType": 5126,
            "type": "VEC2",
            "count": 142,
            "bufferView": 5,
            "byteOffset": 0
        }
    ],
    "images": [
        {
            "name": "why.png",
            "uri": "why.png"
        }
    ],
    "samplers": [
        {}
    ],
    "textures": [
        {
            "name": "Map #1",
            "sampler": 0,
            "source": 0
        }
    ],
    "materials": [
        {
            "name": "03 - Default",
            "alphaMode": "OPAQUE",
            "extras": {
                "fromFBX": {
                    "shadingModel": "Phong",
                    "isTruePBR": false
                }
            },
            "pbrMetallicRoughness": {
                "baseColorTexture": {
                    "index": 0,
                    "texCoord": 0
                },
                "baseColorFactor": [
                    1.0,
                    1.0,
                    1.0,
                    1.0
                ],
                "metallicFactor": 0.400000005960464,
                "roughnessFactor": 0.70710676908493
            }
        }
    ],
    "meshes": [
        {
            "name": "Line006",
            "primitives": [
                {
                    "material": 0,
                    "mode": 4,
                    "attributes": {
                        "COLOR_0": 3,
                        "NORMAL": 2,
                        "POSITION": 1,
                        "TEXCOORD_0": 4,
                        "TEXCOORD_1": 5
                    },
                    "indices": 0
                }
            ]
        }
    ],
    "nodes": [
        {
            "name": "RootNode",
            "translation": [
                0.0,
                0.0,
                0.0
            ],
            "rotation": [
                0.0,
                0.0,
                0.0,
                1.0
            ],
            "scale": [
                1.0,
                1.0,
                1.0
            ],
            "children": [
                1
            ]
        },
        {
            "name": "Line006",
            "translation": [
                0.0,
                0.000182934571057558,
                0.0
            ],
            "rotation": [
                -0.70710676908493,
                -0.0,
                0.0,
                0.70710676908493
            ],
            "scale": [
                0.874601423740387,
                0.874601423740387,
                0.874601423740387
            ],
            "mesh": 0
        }
    ]
}